<svg xmlns="http://www.w3.org/2000/svg" xmlns:xlink="http://www.w3.org/1999/xlink" width="27" height="27" viewBox="0 0 27 27">
  <defs>
    <clipPath id="clip-path">
      <rect id="Rectangle_19" data-name="Rectangle 19" width="27" height="27" transform="translate(1221 6194)" fill="#393939" stroke="#707070" stroke-width="1"/>
    </clipPath>
  </defs>
  <g id="Mask_Group_3" data-name="Mask Group 3" transform="translate(-1221 -6194)" clip-path="url(#clip-path)">
    <g id="instagram_2_" data-name="instagram (2)" transform="translate(1220.979 6194)">
      <path id="Path_1" data-name="Path 1" d="M26.95,7.938a9.866,9.866,0,0,0-.628-3.276A6.916,6.916,0,0,0,22.372.712,9.891,9.891,0,0,0,19.1.084C17.651.016,17.192,0,13.526,0S9.4.016,7.962.079A9.869,9.869,0,0,0,4.686.707,6.588,6.588,0,0,0,2.292,2.268,6.648,6.648,0,0,0,.736,4.657,9.892,9.892,0,0,0,.108,7.933C.04,9.378.024,9.837.024,13.5S.04,17.627.1,19.067a9.865,9.865,0,0,0,.628,3.276,6.915,6.915,0,0,0,3.951,3.951,9.893,9.893,0,0,0,3.276.628c1.44.063,1.9.079,5.565.079s4.125-.016,5.565-.079a9.863,9.863,0,0,0,3.275-.628,6.906,6.906,0,0,0,3.951-3.951,9.9,9.9,0,0,0,.628-3.276c.063-1.44.079-1.9.079-5.565s-.005-4.125-.069-5.565ZM24.518,18.962a7.4,7.4,0,0,1-.464,2.505,4.479,4.479,0,0,1-2.563,2.563,7.427,7.427,0,0,1-2.505.464c-1.424.063-1.851.079-5.454.079s-4.035-.016-5.454-.079a7.4,7.4,0,0,1-2.505-.464,4.155,4.155,0,0,1-1.551-1.008,4.2,4.2,0,0,1-1.008-1.551,7.428,7.428,0,0,1-.464-2.505c-.063-1.424-.079-1.851-.079-5.454s.016-4.035.079-5.454a7.4,7.4,0,0,1,.464-2.505A4.1,4.1,0,0,1,4.027,4,4.191,4.191,0,0,1,5.578,3a7.432,7.432,0,0,1,2.505-.464c1.424-.063,1.851-.079,5.454-.079s4.035.016,5.454.079A7.4,7.4,0,0,1,21.5,3,4.152,4.152,0,0,1,23.047,4a4.2,4.2,0,0,1,1.008,1.551,7.431,7.431,0,0,1,.464,2.505c.063,1.424.079,1.851.079,5.454s-.016,4.024-.079,5.449Zm0,0" fill="#393939"/>
      <path id="Path_2" data-name="Path 2" d="M13.526,6.567A6.936,6.936,0,1,0,20.462,13.5,6.938,6.938,0,0,0,13.526,6.567Zm0,11.435a4.5,4.5,0,1,1,4.5-4.5,4.5,4.5,0,0,1-4.5,4.5Zm0,0" fill="#393939"/>
      <path id="Path_3" data-name="Path 3" d="M22.356,6.293a1.619,1.619,0,1,1-1.619-1.619,1.619,1.619,0,0,1,1.619,1.619Zm0,0" fill="#393939"/>
    </g>
  </g>
</svg>
