<svg xmlns="http://www.w3.org/2000/svg" xmlns:xlink="http://www.w3.org/1999/xlink" width="27" height="27" viewBox="0 0 27 27">
  <defs>
    <clipPath id="clip-path">
      <rect id="Rectangle_17" data-name="Rectangle 17" width="27" height="27" transform="translate(1221 6096)" fill="#393939"/>
    </clipPath>
  </defs>
  <g id="Mask_Group_1" data-name="Mask Group 1" transform="translate(-1221 -6096)" clip-path="url(#clip-path)">
    <path id="twitter" d="M24.226,8A11.049,11.049,0,0,0,27,5.129h0A11.56,11.56,0,0,1,23.811,6a5.506,5.506,0,0,0,2.436-3.059,11.075,11.075,0,0,1-3.51,1.34,5.535,5.535,0,0,0-9.575,3.785A5.7,5.7,0,0,0,13.29,9.33,15.671,15.671,0,0,1,1.88,3.539a5.535,5.535,0,0,0,1.7,7.4,5.471,5.471,0,0,1-2.5-.682v.061a5.561,5.561,0,0,0,4.435,5.439,5.5,5.5,0,0,1-1.451.182,4.886,4.886,0,0,1-1.047-.094A5.59,5.59,0,0,0,8.188,19.7a11.127,11.127,0,0,1-6.864,2.36A10.469,10.469,0,0,1,0,21.985a15.588,15.588,0,0,0,8.492,2.484A15.647,15.647,0,0,0,24.226,8Z" transform="translate(1221 6096)" fill="#393939"/>
  </g>
</svg>
